<?xml version="1.0" encoding="UTF-8"?>
<svg id="Layer_1" xmlns="http://www.w3.org/2000/svg" version="1.1" viewBox="0 0 80 22">
  <!-- Generator: Adobe Illustrator 29.3.1, SVG Export Plug-In . SVG Version: 2.1.0 Build 151)  -->
  <defs>
    <style>
      .st0 {
        fill: #d6d4cd;
      }

      .st1 {
        fill: #2d2d2d;
      }

      .st2 {
        fill: #6a6b61;
      }

      .st3 {
        fill: #2e2e2e;
      }
    </style>
  </defs>
  <path class="st3" d="M5,3.2h.8c.9,0,1.6.7,1.6,1.6v12.9c0,.9-.7,1.6-1.6,1.6h-.8V3.2h0Z"/>
  <path class="st3" d="M75.4,19.2h-.8c-.9,0-1.6-.7-1.6-1.6V4.8c0-.9.7-1.6,1.6-1.6h.8v16h0Z"/>
  <rect class="st3" x="5" y="20.5" width="71.3" height="1.5"/>
  <rect class="st2" x="29.8" width="20.7" height="22"/>
  <rect class="st1" x="28.8" width="2" height="22"/>
  <rect class="st1" x="49.6" width="2" height="22"/>
  <g>
    <rect class="st0" x="75.3" width="4.2" height="22"/>
    <rect class="st0" x=".5" width="4.2" height="22"/>
  </g>
  <g>
    <rect class="st1" width="1" height="22"/>
    <rect class="st1" x="79" width="1" height="22"/>
  </g>
  <g>
    <rect class="st1" x="4.2" width="1" height="22"/>
    <rect class="st1" x="74.8" width="1" height="22"/>
  </g>
</svg>