<?xml version="1.0" encoding="UTF-8"?>
<svg id="Layer_1" xmlns="http://www.w3.org/2000/svg" version="1.1" viewBox="0 0 80 6">
  <!-- Generator: Adobe Illustrator 29.3.1, SVG Export Plug-In . SVG Version: 2.1.0 Build 151)  -->
  <defs>
    <style>
      .st0 {
        fill: #d6d4cd;
      }

      .st1 {
        fill: #2d2d2d;
      }
    </style>
  </defs>
  <g>
    <path class="st0" d="M75.3,0v4.5h3c.7,0,1.2-.6,1.2-1.2V0h-4.2,0Z"/>
    <path class="st0" d="M.5,0v3.4c0,.7.6,1.2,1.2,1.2h3V0H.5Z"/>
  </g>
  <path class="st1" d="M4.2,0v4.1H1.7c-.4,0-.7-.4-.7-.7V0H0v3.4c0,.9.8,1.7,1.7,1.7h3.5V0h-1Z"/>
  <path class="st1" d="M79,0v3.3c0,.4-.4.7-.7.7h-2.5V0h-1v5h3.5c.9,0,1.7-.8,1.7-1.7V0h-1Z"/>
  <path class="st1" d="M50.3,0v3.1h-1.4c-.6,0-1,.5-1,1s.5,1,1,1h2.2c.8-.2,1.3-.8,1.3-1.5V0h-2Z"/>
  <path class="st1" d="M31.5,3.2h-1.4V0h-2v3.7c0,.7.6,1.4,1.3,1.5h2.2c.6,0,1-.5,1-1s-.5-1-1-1Z"/>
  <path class="st1" d="M49.2,0h-20.3c.2,1.2,1.2,2,2.3,2h18c1.2,0,2.2-.9,2.3-2h-2.3Z"/>
</svg>