<?xml version="1.0" encoding="UTF-8"?>
<svg id="Layer_1" xmlns="http://www.w3.org/2000/svg" version="1.1" viewBox="0 0 80 31">
  <!-- Generator: Adobe Illustrator 29.3.1, SVG Export Plug-In . SVG Version: 2.1.0 Build 151)  -->
  <defs>
    <style>
      .st0 {
        fill: #141414;
      }

      .st1, .st2 {
        fill: #d6d4cd;
      }

      .st3 {
        fill: #2d2d2d;
      }

      .st4 {
        fill: #303030;
      }

      .st5 {
        fill: #6a6b61;
      }

      .st6 {
        fill: #2e3030;
      }

      .st7 {
        fill: #515151;
      }

      .st2 {
        stroke: #2d2d2d;
        stroke-miterlimit: 10;
        stroke-width: 2px;
      }
    </style>
  </defs>
  <g id="Layer_6_copy">
    <path class="st2" d="M9.1,19.4h62.4c1.8,0,3.2,1.4,3.2,3.2h0v4.2c0,.3-.2.5-.5.5H6s-.1,0-.1-.1h0v-4.6c0-1.8,1.5-3.2,3.2-3.2h0Z"/>
    <rect class="st2" x="5.2" y="28.4" width="69.5" height="1.6"/>
  </g>
  <g id="Layer_4_copy">
    <rect class="st6" x="56.5" y="0" width="7.4" height="9.7" rx="3.7" ry="3.7"/>
    <rect class="st6" x="16.9" y="0" width="7.4" height="9.7" rx="3.7" ry="3.7"/>
    <path class="st7" d="M13.9,3.2h52.2c1,0,1.8.8,1.8,1.8v7.7H12.1v-7.7c0-1,.8-1.8,1.8-1.8Z"/>
    <rect class="st4" x="12.1" y="8.1" width="55.9" height="4.7"/>
    <rect class="st0" x="12.1" y="10.4" width="55.9" height="2.3"/>
  </g>
  <g id="Layer_5_copy">
    <g>
      <path class="st1" d="M4.7,31v-12c0-.9.7-1.6,1.6-1.6h67.4c.9,0,1.6.7,1.6,1.6v12h4.2V14c0-.7-.6-1.2-1.2-1.2H1.7c-.7,0-1.2.6-1.2,1.2v17h4.2Z"/>
      <g>
        <path class="st3" d="M1,31V14c0-.4.4-.7.7-.7h76.5c.4,0,.7.4.7.7v17h1V14c0-.9-.8-1.7-1.7-1.7H1.7c-.9,0-1.7.8-1.7,1.7v17h1Z"/>
        <path class="st3" d="M73.7,16.9H6.3c-1.2,0-2.1.9-2.1,2.1v12h1v-12c0-.6.5-1.1,1.1-1.1h67.4c.6,0,1.1.5,1.1,1.1v12h1v-12c0-1.2-.9-2.1-2.1-2.1Z"/>
      </g>
    </g>
  </g>
  <path class="st5" d="M50.6,31V2.9c0-.8-.6-1.4-1.4-1.4h-18c-.8,0-1.4.6-1.4,1.4v28.1h20.7Z"/>
  <path class="st3" d="M30.9,31V2.9c0-.2.2-.4.4-.4h18c.2,0,.4.2.4.4v28.1h2V2.9c0-1.3-1.1-2.4-2.4-2.4h-18c-1.3,0-2.4,1.1-2.4,2.4v28.1h2Z"/>
</svg>