<?xml version="1.0" encoding="UTF-8"?>
<svg id="Layer_1" xmlns="http://www.w3.org/2000/svg" version="1.1" viewBox="0 0 168.5 168.5">
  <!-- Generator: Adobe Illustrator 29.3.1, SVG Export Plug-In . SVG Version: 2.1.0 Build 151)  -->
  <defs>
    <style>
      .st0 {
        fill: #f37024;
      }
    </style>
  </defs>
  <path class="st0" d="M168.5,109c0-1.4-1.1-2.6-2.6-2.6h-30.1c.6,0,1.1.2,1.5.5-.1,0-.2.2-.3.3-1-.5-1.9-.7-1.2-.7h-15.9v-4.1c19.2-.9,26.4-11.6,29-20.6,1.9-6.6,1.3-12.3,1.3-12.5-.1-1.2-1.1-2.1-2.3-2.3-.1,0-1,0-2.5,0-5.1,0-18.2,1.2-25.5,12.6v-7.6c7.7-.5,13.6-3,17.7-7.6,7-7.8,5.9-18.4,5.8-18.9-.1-1.2-1.1-2.1-2.3-2.3h-2c-7.1,0-14.4,2.5-19.2,8.6.3-6.7,5.8-12,12.5-12s2.6-1.1,2.6-2.6-1.1-2.6-2.6-2.6-4.1.4-6,1c1.3-3.1,1.9-6.3,1.7-9.6-.6-10.4-8.9-17.2-9.2-17.4-.9-.7-2.3-.7-3.2,0-.4.3-8.6,7-9.2,17.4-.2,3.3.4,6.6,1.8,9.8-1.9-.7-3.9-1.1-6.1-1.1s-2.6,1.1-2.6,2.6,1.2,2.6,2.6,2.6c6.8,0,12.4,5.5,12.5,12.3-4.8-6.4-12.3-9-19.6-9s-2,0-2,0c-1.2,0-2.1,1.1-2.3,2.3,0,.4-1.1,11.1,5.8,18.9,4.2,4.7,10.2,7.2,18.1,7.7v7.5c-7.3-11.4-20.5-12.6-25.5-12.6s-2.4,0-2.5,0c-1.2,0-2.1,1.1-2.3,2.3,0,.6-1.4,13.8,7.3,23.6,5.3,5.9,13,9.1,23.1,9.6v4.1H48.9v-4.1c19.2-.9,26.4-11.6,29-20.6,1.9-6.6,1.3-12.3,1.3-12.5,0-1.2-1.1-2.1-2.3-2.3,0,0-1,0-2.5,0-5.1,0-18.2,1.2-25.5,12.6v-7.6c7.7-.5,13.6-3,17.7-7.6,7-7.8,5.9-18.4,5.8-18.9,0-1.2-1.1-2.1-2.3-2.3h-2c-7.1,0-14.4,2.5-19.2,8.6.3-6.7,5.8-12,12.5-12s2.6-1.1,2.6-2.6-1.1-2.6-2.6-2.6-4.1.4-6,1c1.3-3.1,1.9-6.3,1.7-9.6-.6-10.4-8.9-17.2-9.2-17.4-.9-.7-2.3-.7-3.2,0-.4.3-8.6,7-9.2,17.4-.2,3.3.4,6.6,1.8,9.8-1.9-.7-3.9-1.1-6.1-1.1s-2.6,1.1-2.6,2.6,1.1,2.6,2.6,2.6c6.8,0,12.4,5.5,12.5,12.3-4.8-6.4-12.3-9-19.6-9s-2,0-2,0c-1.2,0-2.1,1.1-2.3,2.3,0,.4-1.1,11.1,5.8,18.9,4.2,4.7,10.2,7.2,18.1,7.7v7.5c-7.3-11.4-20.5-12.6-25.5-12.6s-2.4,0-2.5,0c-1.2,0-2.1,1.1-2.3,2.3,0,.6-1.4,13.8,7.3,23.6,5.3,5.9,13,9.1,23.1,9.6v4.1H2.6c-1.4,0-2.6,1.2-2.6,2.6v55c0,1.4,1.1,2.6,2.6,2.6h137.1-.5c.3,0,.5-.2.8-.3.2.2.2.3-.3.3h26.2c1.4,0,2.6-1.1,2.6-2.6v-55.3ZM145.2,72c0,2-.2,5-1.2,8.4-3.1,10.6-11.2,16.2-24.1,16.9,1.2-22.5,17.7-25.2,25.2-25.2h0ZM100.6,60.8c-3.8-4.2-4.5-9.7-4.6-12.7,5.9.2,17.4,2.6,18.6,18.6-6.1-.4-10.8-2.4-14-5.9ZM95.6,89.4c-5.3-5.9-6.1-13.7-6.1-17.4,7.5,0,24.1,2.8,25.2,25.2-8.4-.4-14.9-3.1-19.2-7.8h0ZM74.2,72c0,2-.2,5-1.2,8.4-3.1,10.6-11.1,16.2-24.1,16.9,1.2-22.5,17.7-25.2,25.2-25.2h0ZM29.5,60.8c-3.8-4.2-4.5-9.7-4.6-12.7,5.9.2,17.4,2.6,18.6,18.6-6.1-.4-10.8-2.4-14-5.9ZM24.5,89.4c-5.3-5.9-6.1-13.7-6.1-17.4,7.5,0,24.1,2.8,25.2,25.2-8.4-.4-14.9-3.1-19.2-7.8h.1ZM138.4,48.1c-.1,3-.9,8.5-4.6,12.7-3.1,3.5-7.8,5.4-13.9,5.9v-.7c1.4-15.4,12.7-17.7,18.5-17.9ZM111.6,26.3c.3-5.6,3.7-10,5.7-12.2,2.1,2.2,5.4,6.6,5.7,12.2.3,4.7-1.7,9.4-5.7,14.1-4-4.6-6-9.4-5.7-14h0ZM67.4,48.1c0,3-.9,8.5-4.6,12.7-3.1,3.5-7.8,5.4-13.9,5.9v-.7c1.4-15.4,12.7-17.7,18.5-17.9ZM40.6,26.3c.3-5.6,3.7-10,5.7-12.2,2.1,2.2,5.4,6.6,5.7,12.2.3,4.7-1.7,9.4-5.7,14.1-4-4.6-6-9.4-5.7-14h0ZM32,111.6h104.3v17H32v-17ZM5.2,111.6h21.7v17H5.2v-17ZM26.8,161.4H5.2v-17h21.7v17h-.1ZM136.2,161.4H31.9v-17h104.3v17ZM163.3,161.4h-22v-17h22v17ZM163.4,139.8H5.2v-6.9h158.2v6.9ZM163.4,128.6h-22v-17h22v17Z"/>
  <path class="st0" d="M15.5,115c-2.8,0-5.1,2.3-5.1,5.1s2.3,5.1,5.1,5.1,5.1-2.3,5.1-5.1-2.3-5.1-5.1-5.1Z"/>
  <path class="st0" d="M152.9,125.2c2.8,0,5.1-2.3,5.1-5.1s-2.3-5.1-5.1-5.1-5.1,2.3-5.1,5.1,2.3,5.1,5.1,5.1Z"/>
  <path class="st0" d="M15.5,147.9c-2.8,0-5.1,2.3-5.1,5.1s2.3,5.1,5.1,5.1,5.1-2.3,5.1-5.1-2.3-5.1-5.1-5.1Z"/>
  <path class="st0" d="M152.9,158c2.8,0,5.1-2.3,5.1-5.1s-2.3-5.1-5.1-5.1-5.1,2.3-5.1,5.1,2.3,5.1,5.1,5.1Z"/>
</svg>