<?xml version="1.0" encoding="UTF-8"?>
<svg id="Layer_1" xmlns="http://www.w3.org/2000/svg" version="1.1" viewBox="0 0 168.5 168.5">
  <!-- Generator: Adobe Illustrator 29.3.1, SVG Export Plug-In . SVG Version: 2.1.0 Build 151)  -->
  <defs>
    <style>
      .st0 {
        fill: #f37024;
      }
    </style>
  </defs>
  <path class="st0" d="M9.4,94.8h.5c1.2,0,2.3-.8,2.5-2.1v-.5c.1,0,8.5-42.2,8.5-42.2,18.7-15.4,56.3-39.6,63.9-44.5,7.5,4.7,44,28,63.9,44.4l7.3,42.2v.4c.3,1.4,1.6,2.3,3,2.1,1.4-.2,2.3-1.6,2.1-3l-7.6-43.6c-.1-.6-.4-1.1-.9-1.5C130.6,28.2,86.6.7,86.2.4c-.8-.5-1.9-.5-2.7,0-.5.3-45.8,29-66.5,46.3-.4.4-.8.9-.9,1.5l-8.7,43.6c-.3,1.4.6,2.7,2,3Z"/>
  <path class="st0" d="M150.8,88.1l-6.4-37.1c-.1-.6-.4-1.1-.9-1.5-19-15.9-56.6-39.4-57-39.7-.8-.5-1.9-.5-2.7,0-1.6,1-39.2,24.8-57,39.7-.4.4-.8.9-.9,1.5l-7.5,37.3v76.7c0,1.4,1.1,2.6,2.6,2.6s2.6-1.1,2.6-2.6v-75.9l7.2-36.2c15.8-13.1,47.4-33.4,54.4-37.8,6.8,4.3,37.5,23.9,54.3,37.8l6.3,36.2v75.9c0,1.4,1.1,2.6,2.6,2.6s2.6-1.1,2.6-2.6v-76.8h-.2Z"/>
  <path class="st0" d="M120.2,107.4H48.3c-1.4,0-2.6,1.1-2.6,2.6v55c0,1.4,1.1,2.6,2.6,2.6s2.6-1.1,2.6-2.6v-52.5h66.8v52.5c0,1.4,1.1,2.6,2.6,2.6s2.6-1.1,2.6-2.6v-55c0-1.4-1.1-2.6-2.6-2.6h0Z"/>
  <path class="st0" d="M59.7,86.1h49.1c1.4,0,2.6-1.1,2.6-2.6v-32.3c0-1.4-1.1-2.6-2.6-2.6h-49.1c-1.4,0-2.6,1.1-2.6,2.6v32.3c0,1.4,1.1,2.6,2.6,2.6ZM62.3,53.8h44v27.2h-44s0-27.2,0-27.2Z"/>
  <path class="st0" d="M108.9,164.2l-21.2-23,21.2-23c1-1,.9-2.7-.2-3.6-1-1-2.7-.9-3.6.2l-20.9,22.7-20.9-22.7c-1-1-2.6-1.1-3.6-.2-1,1-1.1,2.6-.2,3.6l21.2,23-21.2,23c-.2.2-.4.5-.5.8-.4,1-.2,2.1.6,2.9.5.5,1.1.7,1.7.7s1.4-.3,1.9-.8l2.5-2.7,18.4-20,18.4,20,2.5,2.7c.5.6,1.2.8,1.9.8s1.2-.2,1.7-.7c.8-.8,1-1.9.6-2.9,0-.3-.3-.5-.5-.8h.2Z"/>
</svg>