<?xml version="1.0" encoding="UTF-8"?>
<svg id="Layer_1" xmlns="http://www.w3.org/2000/svg" version="1.1" viewBox="0 0 168.5 168.5">
  <!-- Generator: Adobe Illustrator 29.3.1, SVG Export Plug-In . SVG Version: 2.1.0 Build 151)  -->
  <defs>
    <style>
      .st0 {
        fill: #1c1c05;
      }

      .st1 {
        fill: #f37024;
      }
    </style>
  </defs>
  <path class="st1" d="M167.7,89.3c-.5-.5-1.2-.8-1.8-.8s-1.3.3-1.8.8l-14.1,14.1-47.8-52.1,34-34,27.9,25.8c.5.5,1.1.7,1.7.7s1.4-.3,1.9-.8c1-1,.9-2.7-.1-3.6l-12.9-11.9c3.3-1.5,7-1.2,9.5,1,1.1.9,2.7.8,3.6-.2.9-1.1.8-2.7-.2-3.6-4.5-4-11.3-4.2-16.9-.8l-3.9-3.6c.2-.3.5-.5.7-.8,4-4,10.1-5.1,15.2-2.7,1.3.6,2.8,0,3.4-1.2.6-1.3,0-2.8-1.2-3.4-7.1-3.3-15.5-1.8-21,3.7-.3.3-.6.6-.9.9l-5.1-4.7c-1-.9-2.6-.9-3.5,0l-37.5,37.5c-1,1-1,2.5,0,3.5l23.6,25.7-32.1-4.5c-.8,0-1.6.2-2.2.7l-6.9,6.9c-1,1-1,2.6,0,3.6s1.2.8,1.8.8.6,0,.9-.2l52.2,7.7,13.9,15.2c.5.5,1.1.8,1.8.8h0c.7,0,1.3-.3,1.8-.8l16-16c1-1,1-2.6,0-3.6h0ZM97.5,83.1l-10.7-1.6,2.1-2.1,23,3.2,14,1.9,2.8,3.1-31.2-4.6h0Z"/>
  <path class="st1" d="M91.3,92.9c-1.1-.8-2.7-.6-3.6.5l-25.3,33.9c-.8,1.1-.6,2.7.5,3.6.5.3,1,.5,1.5.5.8,0,1.6-.4,2.1-1l25.3-33.8c.8-1.1.6-2.7-.5-3.6h0Z"/>
  <path class="st1" d="M71.6,97.3c-1.1-.8-2.7-.6-3.6.5l-14.6,19.6c-.8,1.1-.6,2.7.5,3.6.5.3,1,.5,1.5.5.8,0,1.6-.4,2.1-1l14.5-19.6c.8-1.1.6-2.7-.5-3.6h0Z"/>
  <path class="st1" d="M91.3,116.8l-7.3,9.8c-.8,1.1-.6,2.7.5,3.6.5.3,1,.5,1.5.5.8,0,1.6-.4,2.1-1l7.3-9.8c.9-1.1.6-2.7-.5-3.6-1.1-.8-2.7-.6-3.6.5Z"/>
  <path class="st0" d="M43.7,166.5h0,0Z"/>
  <path class="st1" d="M147.8,162.2h-38.1c-.8-16.8-15.9-30.2-34.5-30.2s-33.3,13.1-34.4,29.5H2.6c-1.4,0-2.6,1.1-2.6,2.6s1.1,2.6,2.6,2.6h41.1c1.2-.2,2.1-1.3,2.1-2.5h0v-.5c0-14.6,13.2-26.4,29.4-26.4s29.4,11.8,29.4,26.4,0,.2,0,.2v.2h0v.8c0,1.4,1.1,2.6,2.6,2.6h40.6c1.4,0,2.6-1.1,2.6-2.6s-1.1-2.6-2.6-2.6h0Z"/>
  <path class="st1" d="M105.7,97.8l-7.3,9.8c-.8,1.1-.6,2.7.5,3.6.5.3,1,.5,1.5.5.8,0,1.6-.4,2.1-1l7.3-9.8c.9-1.1.6-2.7-.5-3.6-1.1-.8-2.7-.6-3.6.5Z"/>
</svg>