<?xml version="1.0" encoding="UTF-8"?>
<svg id="Layer_1" xmlns="http://www.w3.org/2000/svg" version="1.1" viewBox="0 0 168.5 168.5">
  <!-- Generator: Adobe Illustrator 29.3.1, SVG Export Plug-In . SVG Version: 2.1.0 Build 151)  -->
  <defs>
    <style>
      .st0 {
        fill: #f37024;
      }
    </style>
  </defs>
  <path class="st0" d="M38.5,50.5c-1-1-2.6-1.1-3.6,0-1,1-1.1,2.6,0,3.6l27,28.3c.5.5,1.2.8,1.9.8s1.3-.2,1.8-.7c1-1,1.1-2.6,0-3.6l-27-28.3h-.1Z"/>
  <path class="st0" d="M102.2,84.9c.7,0,1.4-.3,1.9-.8l27-28.3c1-1,.9-2.7,0-3.6-1-1-2.6-.9-3.6,0l-27,28.3c-1,1-.9,2.6,0,3.6.5.5,1.1.7,1.8.7h-.1Z"/>
  <path class="st0" d="M145.5,121.4c-1.4,0-2.6,1.1-2.6,2.6v26.7c-3.5-7-8.2-13.5-14-18.9v-10.5c0-1.4-1.1-2.6-2.6-2.6s-2.6,1.1-2.6,2.6v6.2c-10.6-8.1-23.6-12.7-37-13.2v-10.8c21.2-.5,37.4-6.8,48.3-18.9,17.1-19.1,14.4-45.4,14.3-46.5-.1-1.2-1.1-2.1-2.3-2.3,0,0-1.9-.2-4.9-.2-6.7,0-20.8,1.1-33.6,8.7v-.8C107.2,17.9,86.7,1.3,85.8.6c-.9-.7-2.3-.7-3.2,0-.9.7-21.3,17.3-22.7,43v.8c-12.8-7.6-26.8-8.7-33.6-8.7s-4.8.2-4.9.2c-1.2,0-2.1,1.1-2.3,2.3-.1,1.1-2.8,27.3,14.3,46.5,10.8,12.1,27.1,18.5,48.3,18.9v10.8c-13.4.5-26.3,5.2-37,13.2v-6.2c0-1.4-1.1-2.6-2.6-2.6s-2.6,1.1-2.6,2.6v10.5c-5.8,5.4-10.5,11.8-14,18.9v-26.7c0-1.4-1.1-2.6-2.6-2.6s-2.6,1.1-2.6,2.6v42.1s0,.2.1.2c0,0,0,.1.1.2,0,0,0,.1.2.2,0,0,0,.1.2.2,0,0,.1.1.2.2,0,0,.1.1.2.2,0,0,.1,0,.2.1,0,0,.1,0,.2.1h2.1s.2,0,.2-.1c0,0,.1,0,.2-.1,0,0,.2-.1.2-.2h.1c0-.1.1-.3.2-.4h0c0-.1.2-.3.2-.4h0s0-.2.1-.3c0-.2.1-.4.2-.6,6.4-26.2,29.2-44.7,56-45.8v17.2c-7.1.5-13.8,2.9-19.5,7.1-7.2,5.3-12.2,12.9-14.3,21.5h0c-.3,1.5.5,2.9,1.9,3.2h.6c1.2,0,2.2-.8,2.5-2,0-.2,0-.4.2-.6,1.8-7.2,6.2-13.6,12.2-18,5.6-4.1,12.1-6.2,19.1-6.2s14,2.3,19.7,6.7,9.8,10.6,11.5,17.5c0,.2,0,.4.2.6.3,1.4,1.7,2.2,3.1,1.9s2.2-1.7,1.9-3.1h0c-2-8.4-6.8-15.8-13.5-21-5.9-4.6-12.9-7.2-20.3-7.7v-17.2c26.8,1.1,49.6,19.6,56,45.8,0,.2.1.4.2.6v.5s0,.1.1.2c0,0,0,.1.1.2l.2.2s0,.1.2.2l.2.2s.1.1.2.1c0,0,.1,0,.2.1,0,0,.1,0,.2.1h.9c0,0,0,0,0,0h1.1s.1,0,.2-.1c0,0,.1,0,.2-.1l.2-.2.2-.2.2-.2s.1-.1.1-.2c0,0,0-.1.1-.2,0,0,0-.2.1-.2v-42.1c0-1.4-1.1-2.6-2.6-2.6l.7-.3ZM142.2,40.7h2.2c.2,6.4-.3,26-13.2,40.4-9.8,11-24.8,16.7-44.4,17.2,0-2.3.2-4.5.4-6.7,13-13.4,20.1-27.3,21.3-41.4,11.7-8.1,25.4-9.6,33.7-9.6h0ZM37.3,81.2c-12.9-14.4-13.4-34-13.2-40.4h2.2c8.3,0,22,1.5,33.7,9.6,1.1,14.1,8.3,28,21.3,41.4.2,2.1.3,4.3.4,6.7-19.6-.5-34.6-6.2-44.4-17.2h0ZM84.2,33.7c-1.4,0-2.6,1.1-2.6,2.6v48.3c-11.8-13.3-17.4-27-16.7-40.8,1-19.3,14.5-33.5,19.2-37.9,4.7,4.4,18.2,18.6,19.2,37.9.7,13.7-4.9,27.4-16.7,40.8v-48.3c0-1.4-1.2-2.6-2.6-2.6h.2Z"/>
</svg>